PathFileType	4	(X/Y/Z)	D:\TRACE\spotREDO_2-26-24\spot_Both_Motion_3_3-v60.trc
DataRate	CameraRate	NumFrames	NumMarkers	Units	OrigDataRate	OrigDataStartFrame	OrigNumFrames
100.00	100.00	      42	9	mm	100.00	2626	      7000
Frame#	Time	front left toe			Front right toe			aft left toe			aft right toe			Arm			FL body			FR body			AL Body			AR Body			
		X1	Y1	Z1	X2	Y2	Z2	X3	Y3	Z3	X4	Y4	Z4	X5	Y5	Z5	X6	Y6	Z6	X7	Y7	Z7	X8	Y8	Z8	X9	Y9	Z9	

2626	26.250	-127.23729	67.91406	-440.99149	287.90866	78.28325	-540.36737	-16.61168	0.09021	186.27708	369.27356	24.08123	69.55108	60.33268	830.80865	-698.46088	-30.78419	652.10358	-505.80444	123.50484	655.06775	-524.35791	68.73355	543.35925	365.68231	215.04822	535.53705	349.78802	
2627	26.260	-127.16417	67.75208	-440.98541	287.60168	77.98002	-540.70752	-16.75890	0.10962	186.29073	369.20035	24.04691	69.55799	58.94964	831.87878	-691.29797	-30.32472	652.34247	-506.32477	124.12575	655.03204	-524.81805	69.76698	543.05585	365.08163	216.54643	535.27136	349.62469	
2628	26.270	-127.57082	67.90635	-440.87207	287.35440	77.94093	-540.72455	-17.01265	0.28573	186.25969	369.05634	24.04789	69.59653	57.03887	832.78839	-684.34064	-29.63752	652.80640	-506.68073	124.57555	655.25641	-525.29169	70.36550	542.94904	364.94501	217.75471	534.65619	349.06308	
2629	26.280	-127.66040	68.03073	-440.97012	287.02200	77.81783	-540.77917	-17.25148	0.43787	186.25912	368.92188	23.95637	69.62552	55.44590	833.04413	-677.82062	-29.10491	653.32025	-506.85269	125.20438	655.69501	-525.51593	71.67091	542.33832	364.65338	219.12166	534.66309	349.30566	
2630	26.290	-128.00223	68.22621	-440.96335	286.69733	77.74965	-540.90271	-17.38673	0.53927	186.25098	368.78775	23.82188	69.62194	54.19214	832.76782	-671.80206	-28.52887	653.89386	-506.67099	125.72386	656.17352	-525.52405	72.66965	541.74927	364.42981	219.93564	533.42102	348.37643	
2631	26.300	-128.11520	68.14706	-440.98685	286.29453	77.71516	-541.07355	-17.57766	0.59356	186.22542	368.56754	23.62277	69.57192	52.44684	831.79132	-666.60132	-27.84147	654.39423	-506.38684	126.21458	656.86859	-525.42004	73.99471	540.96436	364.39069	220.73297	532.62885	348.05530	
2632	26.310	-128.36984	67.93853	-441.00659	286.05389	77.63633	-541.17163	-17.62329	0.60196	186.22632	368.37183	23.52902	69.51288	51.89134	830.16608	-662.17084	-27.26046	654.81567	-505.76559	126.60341	657.50952	-524.97479	75.12065	540.45532	364.74103	221.73904	532.10101	347.99936	
2633	26.320	-128.69330	67.92863	-440.94775	285.84607	77.66146	-541.17029	-17.75121	0.78356	186.24065	368.27655	23.49838	69.54202	51.48976	828.30847	-658.73291	-26.83292	655.15887	-505.33539	127.18859	657.85284	-524.62512	76.43539	540.01166	365.11334	223.11975	531.84851	348.22733	
2634	26.330	-129.05304	68.07990	-440.92737	285.55515	77.59235	-541.01270	-17.95162	1.00527	186.37094	368.04657	23.53817	69.59843	51.15036	826.28137	-656.29431	-26.70334	655.97424	-505.32144	127.93715	658.22302	-523.96704	77.56114	539.55756	365.72351	224.89825	531.84070	349.94913	
2635	26.340	-129.37029	68.13326	-440.93112	285.24115	77.48895	-540.92542	-18.08728	1.15600	186.45119	367.93854	23.54551	69.64375	50.27509	824.50464	-654.85095	-25.51162	655.63190	-503.71060	128.70819	658.44214	-523.26324	78.91246	539.34998	366.43631	225.48343	531.20776	349.37802	
2636	26.350	-129.49097	68.04220	-440.85342	284.91122	77.30339	-540.84998	-18.32019	1.27377	186.49644	367.83286	23.49020	69.63961	50.23300	822.54865	-653.97980	-24.87119	655.50037	-503.15137	129.21822	658.08997	-522.40692	79.93201	539.04700	367.07477	226.72693	531.38544	351.09869	
2637	26.360	-129.56549	67.67645	-440.81863	284.72040	77.06313	-540.79730	-18.70502	1.33865	186.57571	367.49359	23.43175	69.52036	50.57914	820.82532	-654.14539	-23.87164	655.02759	-501.98367	130.07486	657.88110	-521.63580	81.04025	539.04663	367.90353	227.57574	531.09656	351.54623	
2638	26.370	-129.63139	67.42508	-440.86676	284.83447	76.82117	-540.60748	-18.96680	1.45259	186.57924	367.23651	23.26871	69.51031	50.39692	819.60242	-654.48328	-22.83305	654.48083	-501.34543	130.83781	657.33759	-521.02722	82.09268	539.19397	368.89389	228.54282	530.89868	351.70761	
2639	26.380	-129.74672	67.43689	-440.86465	284.62735	76.53474	-540.64105	-19.13523	1.66187	186.52396	367.13760	23.23571	69.50492	50.46691	819.08667	-655.91522	-21.94735	653.96368	-500.55444	132.18898	656.48065	-520.08240	83.31461	539.48175	369.74103	229.54092	531.17847	353.22400	
2640	26.390	-130.26260	67.68351	-440.72589	284.51001	76.35255	-540.67169	-19.46072	1.94418	186.57234	366.98114	23.15604	69.58964	50.92732	818.99634	-656.94800	-20.56732	653.20227	-499.63983	133.19922	655.85803	-519.37756	84.27372	539.57294	370.69675	231.46722	531.58417	354.12622	
2641	26.400	-130.46167	67.67817	-440.73547	284.22159	76.00782	-540.61963	-19.72090	2.06813	186.61911	366.71423	22.99087	69.67598	51.10233	819.48358	-658.26691	-19.39868	652.50250	-498.88553	134.63498	654.95233	-518.50079	85.29156	539.59119	371.60571	231.90395	531.27411	354.68890	
2642	26.410	-130.80960	67.36089	-440.82425	283.90280	75.70187	-540.65515	-19.98015	1.99288	186.65851	366.25201	22.83192	69.81924	51.31627	819.99133	-659.80634	-17.91523	651.75146	-498.08545	136.27162	654.28589	-517.42090	86.21446	539.58612	372.72351	233.28120	531.36456	356.72293	
2643	26.420	-130.94801	67.34182	-440.79669	283.67319	75.38279	-540.82123	-20.09089	1.90260	186.70958	365.97931	22.73422	69.83440	51.00996	821.28375	-661.19025	-16.32379	650.92590	-497.03296	137.71516	653.49310	-516.52954	87.22456	539.50250	373.58926	233.84688	530.99945	357.59866	
2644	26.430	-130.91846	67.59673	-440.67035	283.47040	75.20783	-540.71136	-20.24327	1.93505	186.61697	365.67947	22.67601	69.87062	51.34044	822.33240	-662.42596	-14.94261	650.41547	-496.50995	139.15341	652.86151	-515.46234	88.50835	539.16730	374.60623	234.79073	531.05188	358.44867	
2645	26.440	-131.02295	67.71172	-440.71951	283.13678	75.09610	-540.56488	-20.65382	2.25251	186.68376	364.90335	22.68145	69.86594	51.02386	823.91589	-663.81897	-13.12236	649.80280	-495.35327	140.93396	652.31409	-514.68005	89.51351	539.02515	375.49512	235.92503	530.71326	359.47345	
2646	26.450	-131.14566	67.87711	-440.66202	282.90936	74.94058	-540.40137	-20.89310	2.38812	186.66238	365.29413	22.73122	70.26043	50.96959	825.16046	-664.88281	-11.31557	649.31506	-494.66809	142.64284	651.67792	-513.69598	90.62669	538.83392	376.68799	237.13808	530.52631	359.87839	
2647	26.460	-131.33762	67.96303	-440.63177	282.72433	74.83006	-540.25916	-21.27006	2.49390	186.70338	365.29788	22.75993	70.39126	50.62551	826.36072	-666.24548	-9.67504	648.73352	-493.54172	144.60120	651.28900	-512.55591	91.97092	538.43048	377.64316	238.87906	530.01068	361.18771	
2648	26.470	-131.57858	68.07159	-440.64771	282.63599	74.64819	-540.10144	-21.67598	2.61528	186.80507	365.01431	22.58053	70.45606	50.49709	827.39233	-667.18085	-7.99799	648.21973	-492.61920	146.32144	650.70276	-511.52280	93.21731	538.07697	378.81082	239.81836	529.85052	362.37491	
2649	26.480	-132.06781	68.07524	-440.56635	282.46167	74.71173	-540.02271	-21.94945	2.71282	186.84944	364.61560	22.53595	70.51009	51.37723	827.82623	-668.01740	-6.04597	647.66504	-491.53012	148.03937	650.16418	-510.31537	94.80680	537.70953	379.97159	241.65477	529.81976	363.47537	
2650	26.490	-132.26653	69.39959	-440.13718	282.16953	74.11799	-539.57855	-22.16278	2.87415	187.10481	364.72894	21.91591	71.09467	50.72961	828.73151	-669.30859	-4.09217	647.08185	-490.30539	149.99147	649.81653	-509.09836	96.46849	537.45264	381.10291	243.40536	529.35547	365.64691	
2651	26.500	-133.06725	76.39662	-436.62308	283.06348	73.30545	-539.44177	-21.86566	3.29314	186.73531	364.71609	20.89033	70.69237	50.88427	829.27698	-669.71576	-1.90121	646.30103	-489.45901	152.30086	649.35052	-508.01553	97.59264	536.59222	382.19916	244.42857	529.15601	366.66357	
2652	26.510	-128.61252	86.59042	-432.21112	283.62015	72.67644	-539.38129	-21.86632	3.37390	186.79962	364.86935	20.92704	70.86064	50.34038	829.84387	-670.34027	0.37734	645.15741	-488.80826	154.25175	648.77142	-507.08618	98.61522	536.12708	382.98886	244.94885	529.27002	367.23566	
2653	26.520	-129.29889	100.70955	-428.18744	283.17831	72.52181	-539.50836	-22.19304	3.39482	186.98915	364.31061	21.11851	70.78017	50.13372	830.10699	-671.09204	2.19511	644.12115	-488.24527	157.43816	648.64014	-506.07715	99.96375	535.64514	383.93704	246.97148	529.20789	368.27588	
2654	26.530	-130.90256	118.42396	-426.54205	283.35614	72.11616	-539.22668	-22.40350	3.51787	187.09251	364.22144	21.13174	70.79610	49.95975	830.51123	-671.48132	3.37468	642.69763	-487.18002	158.95131	648.24432	-505.09610	100.87292	535.05048	384.79660	247.99110	529.55322	369.33365	
2655	26.540	-133.26479	139.10570	-426.90292	282.70447	71.90575	-539.50165	-22.36276	3.61984	187.03024	364.25854	21.12446	70.80209	49.66626	830.64807	-671.44574	4.76556	641.85181	-486.35168	160.02419	647.73401	-504.20145	102.10687	534.66028	385.69019	248.67891	529.90851	370.86047	
2656	26.550	-134.40170	161.09415	-427.24500	282.21735	72.23413	-539.43390	-22.81777	4.08886	187.08925	364.08478	20.59469	70.91499	49.31413	830.31506	-671.35040	5.48614	641.59064	-485.45279	160.86516	647.38251	-503.02200	103.34254	534.13647	386.58456	250.08214	529.00775	371.80374	
2657	26.560	-134.96411	181.84120	-426.90741	281.70859	72.15213	-539.38879	-22.85062	4.31594	187.36757	363.69211	20.52493	71.03860	49.13343	829.89813	-671.28986	5.63727	641.32196	-484.28900	160.67259	647.18585	-502.51141	105.20306	533.43823	387.39862	251.69139	528.88916	372.47336	
2658	26.570	-134.93109	199.26398	-425.30899	281.14078	72.14019	-539.49695	-23.04284	4.35640	187.48946	363.41919	20.39038	71.03970	48.80016	829.65540	-670.97144	5.68342	641.17633	-483.33630	160.92723	646.90344	-501.34988	105.72327	533.27167	388.55118	252.44867	528.47180	373.22424	
2659	26.580	-134.23898	213.06186	-422.93991	280.72430	72.31543	-539.64679	-23.44712	4.50446	187.51126	363.07458	20.20018	70.96362	49.15884	829.20062	-670.89972	5.97425	641.04651	-482.12051	160.95593	646.51410	-500.62350	106.48672	532.92212	389.44412	253.19092	527.76825	374.11581	
2660	26.590	-135.17593	222.74358	-419.01123	280.57608	72.20039	-539.61877	-23.55823	4.47313	187.45499	362.97464	20.23363	70.97398	49.96722	828.77094	-670.87592	5.77807	640.82361	-481.06802	160.98708	646.37933	-499.76550	106.88215	532.58490	390.40460	253.84776	527.62512	374.99136	
2661	26.600	-134.57089	230.92735	-415.22000	280.30197	72.13913	-539.62018	-24.00632	4.51427	187.50502	362.72626	20.35163	70.99831	50.97909	828.17969	-670.40076	5.73633	640.49091	-480.37808	160.97566	646.00330	-498.75565	107.20187	532.39856	391.33328	253.98428	527.35278	375.75516	
2662	26.610	-134.42085	239.43962	-410.23615	279.84683	72.11539	-539.50342	-24.34052	4.49221	187.75635	362.47293	20.46517	71.21550	51.59271	827.87555	-670.31482	5.61444	639.87323	-479.41437	160.83740	645.84753	-498.09119	107.08115	532.41388	392.00055	254.01518	527.14893	375.78848	
2663	26.620	-132.90300	248.00175	-406.31525	279.31671	72.02070	-539.47241	-24.55138	4.47744	187.96886	362.19043	20.46757	71.42389	53.05418	828.04431	-670.03656	4.90199	639.60950	-478.68826	160.20274	645.39563	-497.29321	107.14558	532.35266	392.88754	253.86591	527.41644	377.09927	
2664	26.630	-131.10088	253.62465	-402.61102	278.93668	72.20045	-539.45123	-24.71073	4.43137	187.93301	362.10873	20.48309	71.42081	55.15471	828.33606	-669.66846	4.48618	639.24805	-478.03601	159.57259	644.77600	-496.72769	106.85709	532.22748	393.51904	253.93573	527.15283	377.93781	
2665	26.640	-129.29793	259.16061	-400.73734	278.76324	72.20597	-539.39392	-25.04802	4.30025	188.04491	361.73392	20.42681	71.41177	57.15649	828.90277	-669.89349	3.53213	638.90906	-477.25369	158.74887	644.61591	-496.16010	106.75651	532.06885	394.00354	253.39972	526.87793	377.82260	
2666	26.650	-126.78137	257.72681	-399.29758	278.30804	72.11668	-539.33795	-25.48668	4.28304	187.86656	360.98138	20.37530	71.37528	59.37495	829.16882	-669.69946	3.10187	638.78510	-476.89688	158.45973	644.51929	-495.31448	105.83187	532.02710	394.89114	252.69203	526.72638	379.14828	
2667	26.660	-125.87991	250.71638	-397.05731	277.98111	72.06197	-539.30402	-26.02485	4.25882	187.86827	360.67212	20.46217	71.34033	59.92612	829.59283	-669.71368	2.79330	638.85199	-476.13943	158.02045	644.60333	-494.57779	105.00594	531.72009	395.51263	251.66479	526.78717	379.81454	
